<svg preserveAspectRatio="xMidYMid meet" data-bbox="51.225 10 97.55 180" xmlns="http://www.w3.org/2000/svg" width="200" height="200" viewBox="51.225 10 97.55 180" data-type="color" role="presentation" aria-hidden="true" aria-labelledby="svgcid-4esg66-td4v87"><title id="svgcid-4esg66-td4v87"></title>
    <g>
        <path fill="#1D3B32" d="M148.775 92.449V58.775C148.775 31.837 126.938 10 100 10S51.225 31.837 51.225 58.775v86.907h81.752c9.988-15.308 15.798-33.591 15.798-53.233z" data-color="1"></path>
        <path d="M51.225 190h.003-.003z" fill="#F6A721" data-color="2"></path>
        <path fill="#FFFFFF" d="M131.307 51.181c0-9.652-7.824-17.476-17.476-17.476-5.63 0-10.635 2.665-13.831 6.799-3.196-4.134-8.201-6.799-13.831-6.799-9.652 0-17.476 7.824-17.476 17.476 0 .302.008.602.023.9.478 16.873 14.296 30.407 31.284 30.407s30.806-13.534 31.284-30.407c.015-.298.023-.598.023-.9z" data-color="3"></path>
        <path d="M120.455 51.181a6.624 6.624 0 11-13.248 0 6.624 6.624 0 0113.248 0z" fill="#1D1E1C" data-color="4"></path>
        <path d="M92.793 51.181a6.624 6.624 0 11-13.248 0 6.624 6.624 0 0113.248 0z" fill="#1D1E1C" data-color="4"></path>
        <path d="M100 71.24l-5.866-5.866L100 59.507l5.867 5.867L100 71.24z" fill="#1D1E1C" data-color="4"></path>
        <path fill="#F6A721" d="M127.109 98.425v16.79a8.396 8.396 0 000-16.79z" data-color="2"></path>
        <path fill="#F6A721" d="M132.977 145.682h-20.521V139.2h7.901l-9.806-26.038-9.806 26.038h7.901v6.482H80.341v-11.685h16.222l-7.34-10.73-3.265-4.773-.052-.076h6.07L76.431 95.693l-15.546 22.726h6.071l-.052.076-3.265 4.773-7.34 10.73h16.222v11.685H51.225V190h79.232c0-7.674-6.221-13.895-13.895-13.895h-15.148a98.08 98.08 0 0031.563-30.423z" data-color="2"></path>
        <path opacity=".2" d="M116.561 176.105h-15.148C86.751 184.923 69.584 189.999 51.228 190h79.229c-.001-7.674-6.222-13.895-13.896-13.895z"></path>
        <path opacity=".2" d="M51.225 145.682v27.795c22.2-2.669 42.387-12.79 57.422-27.795H51.225z"></path>
        <path d="M85.958 118.494H66.904l-3.265 4.773h25.584l-3.265-4.773z" opacity=".2"></path>
        <path d="M80.341 133.997v4.773h-7.82v-4.773h7.82z" opacity=".2"></path>
        <path d="M112.456 139.2v4.225h-3.809V139.2h3.809z" opacity=".2"></path>
    </g>
</svg>
